<?xml version="1.0" encoding="utf-8"?>
<!-- Generator: Adobe Illustrator 24.1.2, SVG Export Plug-In . SVG Version: 6.00 Build 0)  -->
<svg version="1.1" id="Layer_1" xmlns="http://www.w3.org/2000/svg" xmlns:xlink="http://www.w3.org/1999/xlink" x="0px" y="0px"
	 viewBox="0 0 250.46 95.03" style="enable-background:new 0 0 250.46 95.03;" xml:space="preserve">
<g id="XMLID_112_">
	<g id="XMLID_116_">
		<path id="XMLID_259_" d="M36.35,34.46h-8.58l-2.63-6.33H10.84l-2.39,6.33H0L12.9,2.47h9.24L36.35,34.46z M17.64,10.12l-4.69,12.43
			h9.85L17.64,10.12z"/>
		<path id="XMLID_257_" d="M67.53,2.47h6.94v31.99H66.5V14.48l-8.63,10.04h-1.22l-8.63-10.04v19.98h-7.97V2.47h6.94l10.27,11.87
			L67.53,2.47z"/>
		<path id="XMLID_117_" d="M94.68,2.47c11.68,0,17.68,7.27,17.68,16.04c0,9.19-5.82,15.95-18.57,15.95H80.56V2.47H94.68z
			 M88.54,28.6h5.21c8.02,0,10.41-5.44,10.41-10.13c0-5.49-2.96-10.13-10.51-10.13h-5.11V28.6z"/>
	</g>
	<g id="XMLID_113_">
		<polygon id="XMLID_115_" points="144.73,10.06 128.23,10.06 118.18,0 154.78,0 154.78,36.61 144.73,26.55 		"/>
		<polygon id="XMLID_114_" points="128.22,26.56 128.22,12.07 117.87,22.42 117.87,36.92 132.36,36.92 142.71,26.56 		"/>
	</g>
</g>
<g>
	<polygon points="101.57,61.73 130.5,61.73 101.57,86.64 101.57,95.03 143.17,95.03 143.17,86.71 114.25,86.71 143.17,61.8 
		143.17,53.41 101.57,53.41 	"/>
	<polygon points="70.93,69.92 59.02,53.41 48.74,53.41 66.73,78.38 66.73,95.03 75.05,95.03 75.05,78.38 93.13,53.41 82.85,53.41 	
		"/>
	<g>
		<rect x="154.79" y="53.41" width="41.6" height="8.33"/>
		<g>
			<polygon points="154.79,70.06 154.79,95.03 196.4,95.03 196.4,86.71 163.12,86.71 163.12,78.38 196.4,78.38 196.4,70.06 			"/>
		</g>
	</g>
	<g>
		<path d="M8.33,78.38h15.36l9.61,16.65h9.61L33.3,78.38h0c4.6,0,8.33-3.73,8.33-8.33v-8.33c0-4.6-3.73-8.33-8.33-8.33H0v8.33h32.71
			c0.33,0,0.59,0.26,0.59,0.59v7.14c0,0.33-0.26,0.59-0.59,0.59H0v8.33v16.65h8.33V78.38z"/>
	</g>
	<polygon points="242.32,53.42 242.32,82.35 217.41,53.42 209.03,53.42 209.03,95.02 217.34,95.02 217.34,66.09 242.26,95.02 
		250.64,95.02 250.64,53.42 	"/>
</g>
</svg>
