<?xml version="1.0" encoding="utf-8"?>
<!-- Generator: Adobe Illustrator 22.1.0, SVG Export Plug-In . SVG Version: 6.00 Build 0)  -->
<svg version="1.1" id="Layer_1" xmlns="http://www.w3.org/2000/svg" xmlns:xlink="http://www.w3.org/1999/xlink" x="0px" y="0px"
	 viewBox="0 0 177.9 69.8" style="enable-background:new 0 0 177.9 69.8;" xml:space="preserve">
<style type="text/css">
	.st0{fill:#FFFFFF;}
</style>
<g>
	<g>
		<path class="st0" d="M37.8,52.8h-8.9l-2.7-6.6H11.3l-2.5,6.6H0l13.4-33.3H23L37.8,52.8z M18.3,27.5l-4.9,12.9h10.2L18.3,27.5z"/>
		<path class="st0" d="M70.2,19.5h7.2v33.3h-8.3V32l-9,10.4h-1.3l-9-10.4v20.8h-8.3V19.5h7.2l10.7,12.3L70.2,19.5z"/>
		<path class="st0" d="M98.5,19.5c12.1,0,18.4,7.6,18.4,16.7c0,9.6-6,16.6-19.3,16.6H83.8V19.5H98.5z M92.1,46.7h5.4
			c8.3,0,10.8-5.7,10.8-10.5c0-5.7-3.1-10.5-10.9-10.5h-5.3V46.7z"/>
	</g>
	<g>
		<polygon class="st0" points="150.5,27.4 133.3,27.4 122.9,17 160.9,17 160.9,55 150.5,44.6 		"/>
		<polygon class="st0" points="133.3,44.6 133.3,29.5 122.6,40.3 122.6,55.4 137.6,55.4 148.4,44.6 		"/>
	</g>
</g>
</svg>
