<svg xmlns="http://www.w3.org/2000/svg" viewBox="0 0 302.88 36.99"><defs><style>.cls-1{fill:#fff;}.cls-2{fill:#00a6cc;}.cls-3{fill:#008fba;}.cls-4{fill:#36c2db;}.cls-5{fill:#f07d21;}.cls-6{fill:#e56126;}.cls-7{fill:#f7962b;}.cls-8{fill:#1f66b0;}.cls-9{fill:#12529e;}.cls-10{fill:#1a7dbd;}</style></defs><g id="Слой_2" data-name="Слой 2"><g id="Content"><path class="cls-1" d="M101.74,29.3a15.45,15.45,0,0,1-3.39-.38A9.83,9.83,0,0,1,95.81,28,1.32,1.32,0,0,1,95,26.79V25.68c0-.46.17-.69.5-.69a1.15,1.15,0,0,1,.41.08l.56.23a11.43,11.43,0,0,0,2.43.76,13.07,13.07,0,0,0,2.64.27,6,6,0,0,0,3.23-.73,2.33,2.33,0,0,0,1.13-2.08,2.16,2.16,0,0,0-.59-1.54A5.61,5.61,0,0,0,103,20.82l-3.19-1a6.8,6.8,0,0,1-3.43-2.22,5.23,5.23,0,0,1-1.1-3.2,5,5,0,0,1,.59-2.45,6.13,6.13,0,0,1,1.58-1.82A7.35,7.35,0,0,1,99.7,9a9.65,9.65,0,0,1,2.77-.38,12.41,12.41,0,0,1,1.49.09c.5.06,1,.15,1.43.25s.87.23,1.26.35a6.26,6.26,0,0,1,.93.38,2.11,2.11,0,0,1,.64.55,1.24,1.24,0,0,1,.2.73v1c0,.46-.17.69-.5.69a2.27,2.27,0,0,1-.85-.26,10.3,10.3,0,0,0-4.24-.85,5.85,5.85,0,0,0-2.93.62,2.14,2.14,0,0,0-1.05,2,2.12,2.12,0,0,0,.66,1.57,6.42,6.42,0,0,0,2.42,1.21l3.12.95A6.66,6.66,0,0,1,108.46,20a5,5,0,0,1,1,3.18,5.52,5.52,0,0,1-.59,2.55,5.7,5.7,0,0,1-1.6,1.95,7.27,7.27,0,0,1-2.45,1.24,11.35,11.35,0,0,1-3.12.38m-28.3-.59a1.28,1.28,0,0,1-.85-.21,1.72,1.72,0,0,1-.46-.86L67,10.6a4.27,4.27,0,0,1-.2-.89.47.47,0,0,1,.4-.54h2.31a1.37,1.37,0,0,1,.86.21,1.91,1.91,0,0,1,.44.86l3.69,14.58L77.9,10.24a1.62,1.62,0,0,1,.44-.85,1.55,1.55,0,0,1,.89-.21H81a1.51,1.51,0,0,1,.89.21,1.6,1.6,0,0,1,.43.87L85.78,25l3.81-14.76A2,2,0,0,1,90,9.39a1.38,1.38,0,0,1,.86-.21h2a.48.48,0,0,1,.55.4.38.38,0,0,1,0,.15,1.93,1.93,0,0,1,0,.34,5.7,5.7,0,0,1-.16.55l-5.3,17a1.81,1.81,0,0,1-.46.86,1.35,1.35,0,0,1-.85.21H84.78a1.3,1.3,0,0,1-.88-.23,1.62,1.62,0,0,1-.43-.89L80,13.42,76.65,27.6a1.69,1.69,0,0,1-.43.89,1.27,1.27,0,0,1-.89.22ZM55.75,26.33A7.07,7.07,0,0,0,58,25.92a4.82,4.82,0,0,0,2.08-1.42,3.52,3.52,0,0,0,.74-1.32,7.72,7.72,0,0,0,.21-1.91v-.93A19.91,19.91,0,0,0,59,20,16,16,0,0,0,57,19.84a5.16,5.16,0,0,0-3.28.88,3.1,3.1,0,0,0-1,2.46,3.12,3.12,0,0,0,.81,2.33,3.16,3.16,0,0,0,2.29.82M64.69,23a6.51,6.51,0,0,0,.25,2,11.81,11.81,0,0,0,.72,1.58,1,1,0,0,1,.16.5.88.88,0,0,1-.42.65l-1.33.93a1,1,0,0,1-.58.19.87.87,0,0,1-.65-.3,4.93,4.93,0,0,1-.8-1,12.58,12.58,0,0,1-.67-1.33,8.12,8.12,0,0,1-6.48,3.05,6,6,0,0,1-4.4-1.58,5.62,5.62,0,0,1-1.62-4.24,5.66,5.66,0,0,1,1.94-4.5,8,8,0,0,1,5.4-1.71,16.74,16.74,0,0,1,2.34.17q1.22.18,2.52.48V16.19a4.82,4.82,0,0,0-1-3.52,5,5,0,0,0-3.59-1,9.92,9.92,0,0,0-2.37.29,17.77,17.77,0,0,0-2.38.75,5.45,5.45,0,0,1-.76.3h-.35c-.31,0-.46-.23-.46-.69V11.25a1.39,1.39,0,0,1,.16-.77A1.58,1.58,0,0,1,50.9,10a14.32,14.32,0,0,1,2.77-1A13.65,13.65,0,0,1,57.1,8.6a8,8,0,0,1,5.76,1.79,7.24,7.24,0,0,1,1.83,5.42Z"/><path class="cls-1" d="M119.29,28.93c-.37,0-.55-.19-.55-.58V9.85c0-.39.18-.58.55-.58H120a.54.54,0,0,1,.61.58l.15,1.57a13,13,0,0,1,3.43-2,9.63,9.63,0,0,1,3.52-.7,4.45,4.45,0,0,1,4.57,3,13.79,13.79,0,0,1,3.64-2.23,10.15,10.15,0,0,1,3.82-.78,4.79,4.79,0,0,1,3.82,1.52,6.64,6.64,0,0,1,1.31,4.42V28.35c0,.39-.19.58-.55.58h-1c-.37,0-.54-.19-.54-.58V15.56a6.42,6.42,0,0,0-.84-3.69,3.07,3.07,0,0,0-2.66-1.16,10.46,10.46,0,0,0-6.58,2.47,16.33,16.33,0,0,1,.11,1.83V28.35c0,.39-.18.58-.55.58h-1c-.37,0-.55-.19-.55-.58V15.56a6.34,6.34,0,0,0-.84-3.69,3.05,3.05,0,0,0-2.65-1.16,10.46,10.46,0,0,0-6.48,2.39V28.35c0,.39-.18.58-.54.58Z"/><path class="cls-1" d="M154.24,27.33a8.34,8.34,0,0,0,3-.61,16.07,16.07,0,0,0,3.24-1.7V20.14a17,17,0,0,0-4.73-.71c-3.4,0-5.09,1.41-5.09,4.23a3.75,3.75,0,0,0,.91,2.73,3.55,3.55,0,0,0,2.69.94m-.29,2a5.27,5.27,0,0,1-4-1.54,5.75,5.75,0,0,1-1.47-4.13,5.74,5.74,0,0,1,1.82-4.49,7.08,7.08,0,0,1,4.95-1.64,17.16,17.16,0,0,1,5.2.89V15.17a4.67,4.67,0,0,0-1.06-3.42,4.87,4.87,0,0,0-3.49-1,16.39,16.39,0,0,0-5.31,1,1.66,1.66,0,0,1-.54.12c-.25,0-.37-.17-.37-.51v-.63a.92.92,0,0,1,.11-.48.77.77,0,0,1,.37-.3,15.55,15.55,0,0,1,6.07-1.21A6.71,6.71,0,0,1,161,10.13a5.7,5.7,0,0,1,1.55,4.37V28.35c0,.39-.19.58-.55.58h-.76a.54.54,0,0,1-.59-.58l-.14-1.68A10,10,0,0,1,154,29.36"/><path class="cls-1" d="M168,28.93c-.36,0-.54-.19-.54-.58V9.85c0-.39.18-.58.54-.58h.69a.55.55,0,0,1,.62.58l.18,2.27a9.43,9.43,0,0,1,2.71-2.33,6.56,6.56,0,0,1,3-.68,8.2,8.2,0,0,1,1,0,.54.54,0,0,1,.54.62v1a.45.45,0,0,1-.11.3.34.34,0,0,1-.29.13,4.7,4.7,0,0,1-.54,0h-.77a6.42,6.42,0,0,0-3,.66A8,8,0,0,0,169.49,14V28.35c0,.39-.18.58-.54.58Z"/><path class="cls-1" d="M180.19,28.93c-.37,0-.55-.19-.55-.58V.59c0-.39.18-.59.55-.59h1c.36,0,.54.2.54.59V18l8.73-8.36a1.2,1.2,0,0,1,.91-.39h1.31c.29,0,.43.11.43.35s-.13.33-.4.58l-8.79,8.37L193.42,28q.33.31.33.51c0,.26-.15.39-.44.39h-1.56a1.1,1.1,0,0,1-.8-.35l-9.24-9.27v9c0,.39-.18.58-.54.58Z"/><path class="cls-1" d="M208,17.67c0-.36,0-.79,0-1.29a6.28,6.28,0,0,0-1.27-4.26A4.75,4.75,0,0,0,203,10.67q-5.75,0-6.07,7Zm-4.47,11.85q-4.32,0-6.51-2.64T194.84,19c0-3.28.74-5.83,2.2-7.64a7.5,7.5,0,0,1,6.17-2.72,6.38,6.38,0,0,1,5.07,2A8.68,8.68,0,0,1,210,16.54a15,15,0,0,1-.14,2.35c-.08.39-.28.58-.62.58H197q0,4.11,1.67,6.06a6.24,6.24,0,0,0,5.06,2,13,13,0,0,0,5-1,2.22,2.22,0,0,1,.65-.2.33.33,0,0,1,.26.14.52.52,0,0,1,.11.33v.59a.83.83,0,0,1-.4.82,12.6,12.6,0,0,1-5.75,1.33"/><path class="cls-1" d="M219.86,29.17a4.22,4.22,0,0,1-3.28-1.24,5.11,5.11,0,0,1-1.12-3.57V11.22h-2.87c-.37,0-.55-.19-.55-.58v-.4a.82.82,0,0,1,.11-.46.59.59,0,0,1,.44-.2l2.94-.27.25-5.16A.79.79,0,0,1,216,3.7a.49.49,0,0,1,.38-.14H217c.37,0,.55.19.55.59V9.27h5.27c.37,0,.55.19.55.58v.79c0,.39-.18.58-.55.58h-5.27v13a3.23,3.23,0,0,0,.64,2.27,2.85,2.85,0,0,0,2.12.66,7.89,7.89,0,0,0,1.86-.19l.63-.14a1.67,1.67,0,0,1,.35-.06c.27,0,.4.16.4.47v.59c0,.44-.13.71-.4.82a9.68,9.68,0,0,1-3.27.51"/><path class="cls-1" d="M234.75,27.33a5.18,5.18,0,0,0,4.49-2.09q1.51-2.1,1.51-6.24,0-8.28-5.85-8.29a9.47,9.47,0,0,0-6,2.51V24.67a11.22,11.22,0,0,0,2.91,2,7.11,7.11,0,0,0,3,.65M227.33,37c-.36,0-.54-.2-.54-.59V9.85c0-.39.18-.58.54-.58H228a.55.55,0,0,1,.62.58l.15,1.61A12.49,12.49,0,0,1,232,9.34a8.4,8.4,0,0,1,3.26-.66,6.58,6.58,0,0,1,5.56,2.72,12.14,12.14,0,0,1,2,7.45,12.48,12.48,0,0,1-2.14,7.66A6.86,6.86,0,0,1,235,29.36a8.6,8.6,0,0,1-6.11-2.66v9.7c0,.39-.18.59-.54.59Z"/><path class="cls-1" d="M250.05,29.05a2.92,2.92,0,0,1-2.28-.92,3.74,3.74,0,0,1-.81-2.56V.59c0-.4.18-.59.54-.59h1c.37,0,.55.19.55.59V25.53a1.81,1.81,0,0,0,.31,1.21,1.39,1.39,0,0,0,1.11.35l.49,0a2.74,2.74,0,0,1,.45,0q.51,0,.51.54v.75a.55.55,0,0,1-.47.58,5.13,5.13,0,0,1-1.38.16"/><path class="cls-1" d="M260.17,27.33a8.34,8.34,0,0,0,3-.61,16,16,0,0,0,3.23-1.7V20.14a17,17,0,0,0-4.72-.71c-3.4,0-5.09,1.41-5.09,4.23a3.75,3.75,0,0,0,.91,2.73,3.55,3.55,0,0,0,2.69.94m-.29,2a5.24,5.24,0,0,1-4-1.54,5.75,5.75,0,0,1-1.47-4.13,5.74,5.74,0,0,1,1.82-4.49,7.08,7.08,0,0,1,4.95-1.64,17,17,0,0,1,5.19.89V15.17a4.67,4.67,0,0,0-1.05-3.42,4.87,4.87,0,0,0-3.49-1,16.39,16.39,0,0,0-5.31,1,1.66,1.66,0,0,1-.55.12q-.36,0-.36-.51v-.63a.92.92,0,0,1,.11-.48.79.79,0,0,1,.36-.3,15.62,15.62,0,0,1,6.07-1.21,6.72,6.72,0,0,1,4.75,1.45,5.7,5.7,0,0,1,1.55,4.37V28.35c0,.39-.19.58-.55.58h-.76c-.37,0-.56-.19-.59-.58l-.14-1.68a10,10,0,0,1-6.54,2.69"/><path class="cls-1" d="M281.07,29.36c-2.82,0-4.95-.86-6.4-2.6s-2.18-4.28-2.18-7.64.73-5.88,2.21-7.64a8,8,0,0,1,6.44-2.64,10,10,0,0,1,3.82.74c.29.1.43.38.43.82V11c0,.34-.14.51-.43.51a1.7,1.7,0,0,1-.28,0l-.52-.12a11.2,11.2,0,0,0-2.91-.39c-2.31,0-4,.63-5,1.9s-1.55,3.29-1.55,6.07v.47q0,4.06,1.57,6c1,1.3,2.67,1.94,4.9,1.94a11.38,11.38,0,0,0,3.17-.51,5.6,5.6,0,0,1,.56-.15,1,1,0,0,1,.27,0c.29,0,.44.17.44.51v.54a.81.81,0,0,1-.4.82,10,10,0,0,1-4.14.9"/><path class="cls-1" d="M300.84,17.67c0-.36,0-.79,0-1.29a6.29,6.29,0,0,0-1.28-4.26,4.71,4.71,0,0,0-3.74-1.45q-5.75,0-6.07,7Zm-4.47,11.85c-2.89,0-5.05-.88-6.51-2.64s-2.18-4.37-2.18-7.84q0-4.92,2.2-7.64A7.49,7.49,0,0,1,296,8.68a6.35,6.35,0,0,1,5.07,2,8.63,8.63,0,0,1,1.77,5.83,13.64,13.64,0,0,1-.15,2.35c-.07.39-.28.58-.62.58H289.79q0,4.11,1.67,6.06a6.23,6.23,0,0,0,5.05,2,13,13,0,0,0,5-1,2.14,2.14,0,0,1,.65-.2.34.34,0,0,1,.26.14.52.52,0,0,1,.1.33v.59a.81.81,0,0,1-.4.82,12.56,12.56,0,0,1-5.74,1.33"/><path class="cls-1" d="M11.18,33a2.64,2.64,0,1,1-2.64-2.63A2.64,2.64,0,0,1,11.18,33"/><path class="cls-1" d="M26.35,33a2.64,2.64,0,1,1-2.64-2.63A2.64,2.64,0,0,1,26.35,33"/><polygon class="cls-1" points="40.93 8.5 29.16 8.5 24.48 24.5 7.39 24.5 4.47 15.1 0 15.1 4.62 29.12 27.24 29.12 32.53 12.04 40.93 12.04 40.93 8.5"/><polygon class="cls-2" points="16.52 11.37 21.61 13.74 26.7 5.61 16.52 5.61 16.52 11.37"/><polygon class="cls-3" points="26.7 11.37 21.61 13.74 21.61 5.59 26.7 5.61 26.7 11.37"/><polygon class="cls-4" points="21.61 3.05 16.52 5.61 21.61 7.88 26.7 5.61 21.61 3.05"/><polygon class="cls-5" points="5 11.37 10.09 13.74 15.17 5.61 5 5.61 5 11.37"/><polygon class="cls-6" points="15.17 11.37 10.09 13.74 10.09 5.59 15.17 5.61 15.17 11.37"/><polygon class="cls-7" points="10.09 3.05 5 5.61 10.09 7.88 15.17 5.61 10.09 3.05"/><polygon class="cls-8" points="10.76 20.85 15.85 23.21 20.93 14.89 10.76 14.89 10.76 20.85"/><polygon class="cls-9" points="20.93 20.85 15.85 23.21 15.85 14.89 20.93 14.89 20.93 20.85"/><polygon class="cls-10" points="15.85 12.52 20.93 14.88 15.85 17.36 10.76 14.88 15.85 12.52"/></g></g></svg>