<svg xmlns="http://www.w3.org/2000/svg" viewBox="0 0 75.56 75.56"><defs><style>.cls-1{fill:#f2f0ed;}.cls-2{fill:#638ff2;}</style></defs><g id="Слой_2" data-name="Слой 2"><g id="Content"><path class="cls-1" d="M37.78,0A37.78,37.78,0,1,1,0,37.78,37.78,37.78,0,0,1,37.78,0"/><path class="cls-2" d="M53,28.9H50.47V23.82a12.69,12.69,0,1,0-25.38,0V28.9H22.55A5.08,5.08,0,0,0,17.48,34V59.35a5.09,5.09,0,0,0,5.07,5.08H53a5.09,5.09,0,0,0,5.08-5.08V34A5.09,5.09,0,0,0,53,28.9ZM30.17,23.82a7.62,7.62,0,0,1,15.23,0V28.9H30.17ZM53,59.35H22.55V34H53ZM37.78,51.74a5.08,5.08,0,1,0-5.07-5.08A5.09,5.09,0,0,0,37.78,51.74Z"/></g></g></svg>