<svg xmlns="http://www.w3.org/2000/svg" viewBox="0 0 75.56 75.56"><defs><style>.cls-1{fill:#f2f0ed;}.cls-2{fill:#638ff2;}</style></defs><g id="Слой_2" data-name="Слой 2"><g id="Content"><path class="cls-1" d="M37.78,0A37.78,37.78,0,1,1,0,37.78,37.78,37.78,0,0,1,37.78,0"/><path class="cls-2" d="M44.59,31H31V44.59H44.59Zm-4.54,9.08H35.51V35.51h4.54Zm18.17-4.54V31H53.68V26.43a4.56,4.56,0,0,0-4.54-4.55H44.59V17.34H40.05v4.54H35.51V17.34H31v4.54H26.43a4.57,4.57,0,0,0-4.55,4.55V31H17.34v4.54h4.54v4.54H17.34v4.54h4.54v4.55a4.56,4.56,0,0,0,4.55,4.54H31v4.54h4.54V53.68h4.54v4.54h4.54V53.68h4.55a4.55,4.55,0,0,0,4.54-4.54V44.59h4.54V40.05H53.68V35.51ZM49.14,49.14H26.43V26.43H49.14Z"/></g></g></svg>