<svg xmlns="http://www.w3.org/2000/svg" viewBox="0 0 177.56 31.13"><defs><style>.cls-1{fill:#1d1e1c;}.cls-2{fill:#0270b7;}.cls-3{fill:#0067c5;}</style></defs><g id="Слой_2" data-name="Слой 2"><g id="Header_Footer" data-name="Header / Footer"><path class="cls-1" d="M150,6.08h5.47V8.86a7.09,7.09,0,0,1,6-3.14c4.5,0,8.78,3.53,8.78,10v.07c0,6.44-4.21,10-8.78,10a7.41,7.41,0,0,1-6-2.88v8.28H150Zm14.79,9.68v-.07c0-3.2-2.16-5.33-4.71-5.33s-4.68,2.13-4.68,5.33v.07c0,3.21,2.12,5.33,4.68,5.33s4.71-2.09,4.71-5.33"/><polygon class="cls-1" points="41.38 0 46.49 0 58.29 15.69 58.29 0 63.76 0 63.76 25.37 59.05 25.37 46.85 9.35 46.85 25.37 41.38 25.37 41.38 0"/><path class="cls-1" d="M66.42,15.83v-.07c0-5.5,3.92-10,9.54-10,6.43,0,9.39,5,9.39,10.47,0,.44,0,.94-.08,1.44H71.85a4.49,4.49,0,0,0,4.72,3.78,6.29,6.29,0,0,0,4.67-2l3.13,2.77a9.64,9.64,0,0,1-7.87,3.6c-5.8,0-10.08-4.07-10.08-10M80,14.21c-.32-2.45-1.76-4.1-4.06-4.1s-3.75,1.63-4.18,4.1Z"/><path class="cls-1" d="M88.76,19.9V10.76h-2.3V6.08h2.3V1.16h5.47V6.08h4.53v4.68H94.23V19c0,1.26.54,1.87,1.76,1.87a5.6,5.6,0,0,0,2.7-.68v4.39a8.11,8.11,0,0,1-4.32,1.11c-3.35,0-5.61-1.33-5.61-5.79"/><path class="cls-1" d="M127.48,6.08H133V8.86a7.08,7.08,0,0,1,6-3.14c4.5,0,8.77,3.53,8.77,10v.07c0,6.44-4.2,10-8.77,10a7.41,7.41,0,0,1-6-2.88v8.28h-5.47Zm14.78,9.68v-.07c0-3.2-2.16-5.33-4.71-5.33s-4.67,2.13-4.67,5.33v.07c0,3.21,2.12,5.33,4.67,5.33s4.71-2.09,4.71-5.33"/><path class="cls-1" d="M110.61,0h5l10.52,25.37h-5.77L118,19.72H108l-2.3,5.65h-5.65Zm5.77,14.83L113,6.65l-3.35,8.18Z"/><polygon class="cls-2" points="0 0.01 0 25.37 11.84 25.37 11.84 10.15 18.6 10.15 18.6 25.37 30.44 25.37 30.44 0.01 0 0.01"/><path class="cls-1" d="M171.2,8.89a3.24,3.24,0,0,1,.25-1.25A3.14,3.14,0,0,1,173.16,6a3.18,3.18,0,0,1,1.23-.25,3.13,3.13,0,0,1,1.22.25,3.05,3.05,0,0,1,1,.66,3.32,3.32,0,0,1,.69,1,3.28,3.28,0,0,1,0,2.51,3.41,3.41,0,0,1-.69,1,2.9,2.9,0,0,1-1,.66,3,3,0,0,1-1.22.25,3,3,0,0,1-1.23-.25,3.14,3.14,0,0,1-1-.66,3.41,3.41,0,0,1-.69-1,3.26,3.26,0,0,1-.25-1.26m.58,0A2.87,2.87,0,0,0,172,10a2.49,2.49,0,0,0,.55.86,2.58,2.58,0,0,0,.83.58,2.66,2.66,0,0,0,1,.2,2.61,2.61,0,0,0,1-.2,2.58,2.58,0,0,0,.83-.58,2.82,2.82,0,0,0,.55-.86,2.94,2.94,0,0,0,0-2.13,2.72,2.72,0,0,0-.55-.84,2.28,2.28,0,0,0-.83-.57,2.45,2.45,0,0,0-1-.21,2.5,2.5,0,0,0-1,.21,2.28,2.28,0,0,0-.83.57,2.4,2.4,0,0,0-.55.84,2.86,2.86,0,0,0-.2,1.06m1.38-1.83h1.42a1.54,1.54,0,0,1,1,.25,1,1,0,0,1,.32.8.86.86,0,0,1-.29.73,1.13,1.13,0,0,1-.69.27L176,10.75h-.62l-1-1.59h-.61v1.59h-.57Zm.57,1.63h1a.79.79,0,0,0,.32-.07.55.55,0,0,0,.22-.18.66.66,0,0,0,.07-.34.51.51,0,0,0-.07-.3.42.42,0,0,0-.18-.17.77.77,0,0,0-.27-.08l-.29,0h-.76Z"/><polygon class="cls-3" points="0 0.01 0 25.37 11.84 25.37 11.84 10.15 18.6 10.15 18.6 25.37 30.44 25.37 30.44 0.01 0 0.01"/></g></g></svg>